<svg width="366" height="30" viewBox="0 0 366 30" fill="none" xmlns="http://www.w3.org/2000/svg">
<path d="M17.3944 1.2V21.24C17.3944 23.72 16.6344 25.68 15.1144 27.12C13.621 28.56 11.6477 29.28 9.19438 29.28C6.74104 29.28 4.75438 28.56 3.23438 27.12C1.74104 25.68 0.994375 23.72 0.994375 21.24H5.59438C5.62104 22.4667 5.92771 23.44 6.51438 24.16C7.12771 24.88 8.02104 25.24 9.19438 25.24C10.3677 25.24 11.261 24.88 11.8744 24.16C12.4877 23.4133 12.7944 22.44 12.7944 21.24V1.2H17.3944ZM29.3725 4.88V13.04H38.9725V16.76H29.3725V25.28H40.1725V29H24.8125V1.16H40.1725V4.88H29.3725ZM54.9491 29.28C53.0824 29.28 51.4024 28.96 49.9091 28.32C48.4157 27.6533 47.2424 26.72 46.3891 25.52C45.5357 24.32 45.1091 22.92 45.1091 21.32H49.9891C50.0957 22.52 50.5624 23.5067 51.3891 24.28C52.2424 25.0533 53.4291 25.44 54.9491 25.44C56.5224 25.44 57.7491 25.0667 58.6291 24.32C59.5091 23.5467 59.9491 22.56 59.9491 21.36C59.9491 20.4267 59.6691 19.6667 59.1091 19.08C58.5757 18.4933 57.8957 18.04 57.0691 17.72C56.2691 17.4 55.1491 17.0533 53.7091 16.68C51.8957 16.2 50.4157 15.72 49.2691 15.24C48.1491 14.7333 47.1891 13.96 46.3891 12.92C45.5891 11.88 45.1891 10.4933 45.1891 8.76C45.1891 7.16 45.5891 5.76 46.3891 4.56C47.1891 3.36 48.3091 2.44 49.7491 1.8C51.1891 1.16 52.8557 0.839998 54.7491 0.839998C57.4424 0.839998 59.6424 1.52 61.3491 2.88C63.0824 4.21333 64.0424 6.05333 64.2291 8.4H59.1891C59.1091 7.38667 58.6291 6.52 57.7491 5.8C56.8691 5.08 55.7091 4.72 54.2691 4.72C52.9624 4.72 51.8957 5.05333 51.0691 5.72C50.2424 6.38667 49.8291 7.34666 49.8291 8.6C49.8291 9.45333 50.0824 10.16 50.5891 10.72C51.1224 11.2533 51.7891 11.68 52.5891 12C53.3891 12.32 54.4824 12.6667 55.8691 13.04C57.7091 13.5467 59.2024 14.0533 60.3491 14.56C61.5224 15.0667 62.5091 15.8533 63.3091 16.92C64.1357 17.96 64.5491 19.36 64.5491 21.12C64.5491 22.5333 64.1624 23.8667 63.3891 25.12C62.6424 26.3733 61.5357 27.3867 60.0691 28.16C58.6291 28.9067 56.9224 29.28 54.9491 29.28ZM79.0897 29.28C77.223 29.28 75.543 28.96 74.0497 28.32C72.5564 27.6533 71.383 26.72 70.5297 25.52C69.6764 24.32 69.2497 22.92 69.2497 21.32H74.1297C74.2364 22.52 74.703 23.5067 75.5297 24.28C76.383 25.0533 77.5697 25.44 79.0897 25.44C80.663 25.44 81.8897 25.0667 82.7697 24.32C83.6497 23.5467 84.0897 22.56 84.0897 21.36C84.0897 20.4267 83.8097 19.6667 83.2497 19.08C82.7164 18.4933 82.0364 18.04 81.2097 17.72C80.4097 17.4 79.2897 17.0533 77.8497 16.68C76.0364 16.2 74.5564 15.72 73.4097 15.24C72.2897 14.7333 71.3297 13.96 70.5297 12.92C69.7297 11.88 69.3297 10.4933 69.3297 8.76C69.3297 7.16 69.7297 5.76 70.5297 4.56C71.3297 3.36 72.4497 2.44 73.8897 1.8C75.3297 1.16 76.9964 0.839998 78.8897 0.839998C81.583 0.839998 83.783 1.52 85.4897 2.88C87.223 4.21333 88.183 6.05333 88.3697 8.4H83.3297C83.2497 7.38667 82.7697 6.52 81.8897 5.8C81.0097 5.08 79.8497 4.72 78.4097 4.72C77.103 4.72 76.0364 5.05333 75.2097 5.72C74.383 6.38667 73.9697 7.34666 73.9697 8.6C73.9697 9.45333 74.223 10.16 74.7297 10.72C75.263 11.2533 75.9297 11.68 76.7297 12C77.5297 12.32 78.623 12.6667 80.0097 13.04C81.8497 13.5467 83.343 14.0533 84.4897 14.56C85.663 15.0667 86.6497 15.8533 87.4497 16.92C88.2764 17.96 88.6897 19.36 88.6897 21.12C88.6897 22.5333 88.303 23.8667 87.5297 25.12C86.783 26.3733 85.6764 27.3867 84.2097 28.16C82.7697 28.9067 81.063 29.28 79.0897 29.28ZM98.6303 1.2V29H94.0703V1.2H98.6303ZM103.097 15.04C103.097 12.32 103.724 9.88 104.977 7.72C106.257 5.56 107.977 3.88 110.137 2.68C112.324 1.45333 114.711 0.839998 117.297 0.839998C120.257 0.839998 122.884 1.57333 125.177 3.04C127.497 4.48 129.177 6.53333 130.217 9.2H124.737C124.017 7.73333 123.017 6.64 121.737 5.92C120.457 5.2 118.977 4.84 117.297 4.84C115.457 4.84 113.817 5.25333 112.377 6.08C110.937 6.90667 109.804 8.09333 108.977 9.64C108.177 11.1867 107.777 12.9867 107.777 15.04C107.777 17.0933 108.177 18.8933 108.977 20.44C109.804 21.9867 110.937 23.1867 112.377 24.04C113.817 24.8667 115.457 25.28 117.297 25.28C118.977 25.28 120.457 24.92 121.737 24.2C123.017 23.48 124.017 22.3867 124.737 20.92H130.217C129.177 23.5867 127.497 25.64 125.177 27.08C122.884 28.52 120.257 29.24 117.297 29.24C114.684 29.24 112.297 28.64 110.137 27.44C107.977 26.2133 106.257 24.52 104.977 22.36C103.724 20.2 103.097 17.76 103.097 15.04ZM152.315 23.32H140.675L138.675 29H133.915L143.875 1.16H149.155L159.115 29H154.315L152.315 23.32ZM151.035 19.6L146.515 6.68L141.955 19.6H151.035ZM193.276 9.48C193.276 10.8933 192.943 12.2267 192.276 13.48C191.609 14.7333 190.543 15.76 189.076 16.56C187.609 17.3333 185.729 17.72 183.436 17.72H178.396V29H173.836V1.2H183.436C185.569 1.2 187.369 1.57333 188.836 2.32C190.329 3.04 191.436 4.02666 192.156 5.28C192.903 6.53333 193.276 7.93333 193.276 9.48ZM183.436 14C185.169 14 186.463 13.6133 187.316 12.84C188.169 12.04 188.596 10.92 188.596 9.48C188.596 6.44 186.876 4.92 183.436 4.92H178.396V14H183.436ZM202.185 4.88V13.04H211.785V16.76H202.185V25.28H212.985V29H197.625V1.16H212.985V4.88H202.185ZM236.562 1.2V4.92H229.162V29H224.602V4.92H217.162V1.2H236.562ZM245.74 4.88V13.04H255.34V16.76H245.74V25.28H256.54V29H241.18V1.16H256.54V4.88H245.74ZM276.596 29L270.196 17.88H266.716V29H262.156V1.2H271.756C273.89 1.2 275.69 1.57333 277.156 2.32C278.65 3.06666 279.756 4.06667 280.476 5.32C281.223 6.57333 281.596 7.97333 281.596 9.52C281.596 11.3333 281.063 12.9867 279.996 14.48C278.956 15.9467 277.343 16.9467 275.156 17.48L282.036 29H276.596ZM266.716 14.24H271.756C273.463 14.24 274.743 13.8133 275.596 12.96C276.476 12.1067 276.916 10.96 276.916 9.52C276.916 8.08 276.49 6.96 275.636 6.16C274.783 5.33333 273.49 4.92 271.756 4.92H266.716V14.24ZM296.59 29.28C294.723 29.28 293.043 28.96 291.55 28.32C290.056 27.6533 288.883 26.72 288.03 25.52C287.176 24.32 286.75 22.92 286.75 21.32H291.63C291.736 22.52 292.203 23.5067 293.03 24.28C293.883 25.0533 295.07 25.44 296.59 25.44C298.163 25.44 299.39 25.0667 300.27 24.32C301.15 23.5467 301.59 22.56 301.59 21.36C301.59 20.4267 301.31 19.6667 300.75 19.08C300.216 18.4933 299.536 18.04 298.71 17.72C297.91 17.4 296.79 17.0533 295.35 16.68C293.536 16.2 292.056 15.72 290.91 15.24C289.79 14.7333 288.83 13.96 288.03 12.92C287.23 11.88 286.83 10.4933 286.83 8.76C286.83 7.16 287.23 5.76 288.03 4.56C288.83 3.36 289.95 2.44 291.39 1.8C292.83 1.16 294.496 0.839998 296.39 0.839998C299.083 0.839998 301.283 1.52 302.99 2.88C304.723 4.21333 305.683 6.05333 305.87 8.4H300.83C300.75 7.38667 300.27 6.52 299.39 5.8C298.51 5.08 297.35 4.72 295.91 4.72C294.603 4.72 293.536 5.05333 292.71 5.72C291.883 6.38667 291.47 7.34666 291.47 8.6C291.47 9.45333 291.723 10.16 292.23 10.72C292.763 11.2533 293.43 11.68 294.23 12C295.03 12.32 296.123 12.6667 297.51 13.04C299.35 13.5467 300.843 14.0533 301.99 14.56C303.163 15.0667 304.15 15.8533 304.95 16.92C305.776 17.96 306.19 19.36 306.19 21.12C306.19 22.5333 305.803 23.8667 305.03 25.12C304.283 26.3733 303.176 27.3867 301.71 28.16C300.27 28.9067 298.563 29.28 296.59 29.28ZM324.25 29.28C321.664 29.28 319.277 28.68 317.09 27.48C314.93 26.2533 313.21 24.56 311.93 22.4C310.677 20.2133 310.05 17.76 310.05 15.04C310.05 12.32 310.677 9.88 311.93 7.72C313.21 5.56 314.93 3.88 317.09 2.68C319.277 1.45333 321.664 0.839998 324.25 0.839998C326.864 0.839998 329.25 1.45333 331.41 2.68C333.597 3.88 335.317 5.56 336.57 7.72C337.824 9.88 338.45 12.32 338.45 15.04C338.45 17.76 337.824 20.2133 336.57 22.4C335.317 24.56 333.597 26.2533 331.41 27.48C329.25 28.68 326.864 29.28 324.25 29.28ZM324.25 25.32C326.09 25.32 327.73 24.9067 329.17 24.08C330.61 23.2267 331.73 22.0267 332.53 20.48C333.357 18.9067 333.77 17.0933 333.77 15.04C333.77 12.9867 333.357 11.1867 332.53 9.64C331.73 8.09333 330.61 6.90667 329.17 6.08C327.73 5.25333 326.09 4.84 324.25 4.84C322.41 4.84 320.77 5.25333 319.33 6.08C317.89 6.90667 316.757 8.09333 315.93 9.64C315.13 11.1867 314.73 12.9867 314.73 15.04C314.73 17.0933 315.13 18.9067 315.93 20.48C316.757 22.0267 317.89 23.2267 319.33 24.08C320.77 24.9067 322.41 25.32 324.25 25.32ZM365.778 29H361.218L347.498 8.24V29H342.938V1.16H347.498L361.218 21.88V1.16H365.778V29Z" fill="#232323"/>
</svg>
